<svg width="24" height="24" viewBox="0 0 24 24" fill="none" xmlns="http://www.w3.org/2000/svg">
<mask id="mask0_2808_6172" style="mask-type:alpha" maskUnits="userSpaceOnUse" x="-1" y="-1" width="25" height="25">
<rect x="-0.330078" y="-0.431641" width="24" height="24" fill="#D9D9D9"/>
</mask>
<g mask="url(#mask0_2808_6172)">
<path d="M19.4699 12.4936L4.06992 18.9936C3.73659 19.1269 3.41992 19.0977 3.11992 18.9061C2.81992 18.7144 2.66992 18.4352 2.66992 18.0686V5.06857C2.66992 4.70191 2.81992 4.42274 3.11992 4.23107C3.41992 4.03941 3.73659 4.01024 4.06992 4.14357L19.4699 10.6436C19.8866 10.8269 20.0949 11.1352 20.0949 11.5686C20.0949 12.0019 19.8866 12.3102 19.4699 12.4936ZM4.66992 16.5686L16.5199 11.5686L4.66992 6.56857V10.0686L10.6699 11.5686L4.66992 13.0686V16.5686Z" fill="#5386FA"/>
</g>
</svg>
