<svg width="24" height="24" viewBox="0 0 24 24" fill="none" xmlns="http://www.w3.org/2000/svg">
<mask id="mask0_2808_2438" style="mask-type:alpha" maskUnits="userSpaceOnUse" x="0" y="0" width="25" height="25">
<rect width="24" height="24" transform="matrix(-1 0 0 1 24.4531 0.45459)" fill="#D9D9D9"/>
</mask>
<g mask="url(#mask0_2808_2438)">
<path d="M21.4336 19.7783C21.7169 19.7783 21.9544 19.6825 22.1461 19.4908C22.3378 19.2992 22.4336 19.0617 22.4336 18.7783C22.4336 18.495 22.3378 18.2575 22.1461 18.0658C21.9544 17.8742 21.7169 17.7783 21.4336 17.7783H4.43359V4.77832C4.43359 4.49499 4.33776 4.25749 4.14609 4.06582C3.95443 3.87415 3.71693 3.77832 3.43359 3.77832C3.15026 3.77832 2.91276 3.87415 2.72109 4.06582C2.52943 4.25749 2.43359 4.49499 2.43359 4.77832V17.7783C2.43359 18.3283 2.62943 18.7992 3.02109 19.1908C3.41276 19.5825 3.88359 19.7783 4.43359 19.7783H21.4336ZM13.4336 15.7783C13.7169 15.7783 13.9544 15.6825 14.1461 15.4908C14.3378 15.2992 14.4336 15.0617 14.4336 14.7783V10.7783C14.4336 10.495 14.3378 10.2575 14.1461 10.0658C13.9544 9.87415 13.7169 9.77832 13.4336 9.77832H7.43359C7.15026 9.77832 6.91276 9.87415 6.72109 10.0658C6.52943 10.2575 6.43359 10.495 6.43359 10.7783V14.7783C6.43359 15.0617 6.52943 15.2992 6.72109 15.4908C6.91276 15.6825 7.15026 15.7783 7.43359 15.7783H13.4336Z" fill="#111827" fill-opacity="0.6"/>
</g>
</svg>
