<svg width="30" height="30" viewBox="0 0 30 30" fill="none" xmlns="http://www.w3.org/2000/svg">
<path fill-rule="evenodd" clip-rule="evenodd" d="M10.9484 5H19.0516C20.0578 4.99998 20.8883 4.99997 21.5648 5.05524C22.2674 5.11265 22.9133 5.23586 23.52 5.54497C24.4608 6.02434 25.2257 6.78924 25.705 7.73005C26.0141 8.33672 26.1374 8.9826 26.1948 9.68522C26.25 10.3617 26.25 11.1921 26.25 12.1983V16.551C26.25 17.5572 26.25 18.3876 26.1948 19.0641C26.1374 19.7667 26.0141 20.4126 25.705 21.0193C25.2257 21.9601 24.4608 22.725 23.52 23.2043C22.9133 23.5134 22.2674 23.6367 21.5648 23.6941C20.8883 23.7493 20.0578 23.7493 19.0516 23.7493H18.7893L15.9491 27.0634C15.7117 27.3405 15.3649 27.5 15 27.5C14.6351 27.5 14.2883 27.3405 14.0509 27.0634L11.2107 23.7493H10.9484C9.94218 23.7493 9.11172 23.7493 8.43522 23.6941C7.7326 23.6367 7.08672 23.5134 6.48005 23.2043C5.53924 22.725 4.77434 21.9601 4.29497 21.0193C3.98586 20.4126 3.86265 19.7667 3.80524 19.0641C3.74997 18.3876 3.74998 17.5571 3.75 16.5509V12.1984C3.74998 11.1922 3.74997 10.3617 3.80524 9.68522C3.86265 8.9826 3.98585 8.33672 4.29497 7.73005C4.77434 6.78924 5.53924 6.02434 6.48005 5.54497C7.08672 5.23586 7.7326 5.11265 8.43522 5.05524C9.11171 4.99997 9.94216 4.99998 10.9484 5ZM8.6388 7.54694C8.09078 7.59172 7.81052 7.67287 7.61503 7.77248C7.14462 8.01217 6.76217 8.39462 6.52248 8.86503C6.42287 9.06052 6.34172 9.34078 6.29694 9.8888C6.25097 10.4514 6.25 11.1793 6.25 12.25V16.4993C6.25 17.57 6.25097 18.2979 6.29694 18.8605C6.34172 19.4085 6.42287 19.6888 6.52248 19.8843C6.76217 20.3547 7.14462 20.7371 7.61503 20.9768C7.81052 21.0764 8.09078 21.1576 8.6388 21.2024C9.20141 21.2483 9.92928 21.2493 11 21.2493H11.7857C12.1507 21.2493 12.4974 21.4088 12.7349 21.6859L15 24.3291L17.2652 21.6859C17.5026 21.4088 17.8494 21.2493 18.2143 21.2493H19C20.0707 21.2493 20.7986 21.2483 21.3612 21.2024C21.9092 21.1576 22.1895 21.0764 22.385 20.9768C22.8554 20.7371 23.2378 20.3547 23.4775 19.8843C23.5771 19.6888 23.6583 19.4085 23.7031 18.8605C23.749 18.2979 23.75 17.57 23.75 16.4993V12.25C23.75 11.1793 23.749 10.4514 23.7031 9.8888C23.6583 9.34078 23.5771 9.06052 23.4775 8.86503C23.2378 8.39462 22.8554 8.01217 22.385 7.77248C22.1895 7.67287 21.9092 7.59172 21.3612 7.54694C20.7986 7.50097 20.0707 7.5 19 7.5H11C9.92928 7.5 9.20141 7.50097 8.6388 7.54694Z" fill="url(#paint0_linear_2808_489)"/>
<path fill-rule="evenodd" clip-rule="evenodd" d="M18.5 11.5C19.1904 11.5 19.75 12.0596 19.75 12.75L19.75 15.25C19.75 15.9404 19.1904 16.5 18.5 16.5C17.8096 16.5 17.25 15.9404 17.25 15.25L17.25 12.75C17.25 12.0596 17.8096 11.5 18.5 11.5Z" fill="url(#paint1_linear_2808_489)"/>
<path fill-rule="evenodd" clip-rule="evenodd" d="M11.25 11.5C11.9404 11.5 12.5 12.0596 12.5 12.75L12.5 15.25C12.5 15.9404 11.9404 16.5 11.25 16.5C10.5596 16.5 10 15.9404 10 15.25L10 12.75C10 12.0596 10.5596 11.5 11.25 11.5Z" fill="url(#paint2_linear_2808_489)"/>
<defs>
<linearGradient id="paint0_linear_2808_489" x1="4.7693" y1="8.51562" x2="23.9773" y2="24.9308" gradientUnits="userSpaceOnUse">
<stop stop-color="#FF9951"/>
<stop offset="0.336538" stop-color="#C659FC"/>
<stop offset="0.870192" stop-color="#5386FA"/>
</linearGradient>
<linearGradient id="paint1_linear_2808_489" x1="19.3594" y1="11.7265" x2="16.1401" y2="13.61" gradientUnits="userSpaceOnUse">
<stop stop-color="#FF9951"/>
<stop offset="0.336538" stop-color="#C659FC"/>
<stop offset="0.870192" stop-color="#5386FA"/>
</linearGradient>
<linearGradient id="paint2_linear_2808_489" x1="12.1094" y1="11.7265" x2="8.89011" y2="13.61" gradientUnits="userSpaceOnUse">
<stop stop-color="#FF9951"/>
<stop offset="0.336538" stop-color="#C659FC"/>
<stop offset="0.870192" stop-color="#5386FA"/>
</linearGradient>
</defs>
</svg>
